<svg xmlns="http://www.w3.org/2000/svg" xmlns:xlink="http://www.w3.org/1999/xlink" xmlns:lucid="lucid" width="1760" height="1360"><g transform="translate(0 0)" lucid:page-tab-id="0_0"><path d="M181 587h39.76" stroke="#999" stroke-width="2" fill="none"/><path d="M181 588h-1.08l.08-1-.04-1H181zM235.76 587l-14.26 4.64v-9.28z" fill="#999"/><path d="M239 587l-18.5 6v-12zm-16.5 3.26l10.03-3.26-10.03-3.26z" fill="#999"/><path d="M717.5 547.6V445c0-2.76 2.24-5 5-5h210c2.76 0 5 2.24 5 5v62.76" stroke="#999" stroke-width="2" fill="none"/><path d="M718.5 550l-1-1-1 1v-2.4h2zM937.5 522.76l-4.64-14.26h9.28z" fill="#999"/><path d="M937.5 526l-6-18.5h12zm-3.26-16.5l3.26 10.03 3.26-10.03z" fill="#999"/><use xlink:href="#a" transform="matrix(1,0,0,1,690.107107,414.40000000000003) translate(0 14.4)"/><use xlink:href="#b" transform="matrix(1,0,0,1,690.107107,414.40000000000003) translate(132.3 14.4)"/><use xlink:href="#c" transform="matrix(1,0,0,1,690.107107,414.40000000000003) translate(201.10000000000002 14.4)"/><path d="M717.5 625.4V745c0 2.76 2.24 5 5 5h210c2.76 0 5-2.24 5-5v-78.76" stroke="#999" stroke-width="2" fill="none"/><path d="M718.5 625.4h-2V623l1 1 1-1zM942.14 665.5h-9.28l4.64-14.26z" fill="#999"/><path d="M943.5 666.5h-12l6-18.5zm-9.26-2h6.52l-3.26-10.03z" fill="#999"/><use xlink:href="#a" transform="matrix(1,0,0,1,666.0053655576091,754) translate(0 14.4)"/><use xlink:href="#d" transform="matrix(1,0,0,1,666.0053655576091,754) translate(132.3 14.4)"/><use xlink:href="#e" transform="matrix(1,0,0,1,666.0053655576091,754) translate(209.65 14.4)"/><use xlink:href="#f" transform="matrix(1,0,0,1,666.0053655576091,754) translate(266.75 14.4)"/><use xlink:href="#g" transform="matrix(1,0,0,1,666.0053655576091,754) translate(292.6 14.4)"/><path d="M1481 580h38.88c.36 0 .64-.3.64-.64 0-.35.3-.64.64-.64h20.65" stroke="#999" stroke-width="2" fill="none"/><path d="M1481 581h-1v-2h1z" fill="#999"/><path d="M1556.8 578.72l-14.25 4.63v-9.27z" stroke="#999" stroke-width="2" fill="#999"/><path d="M180 587c0 16.57-13.43 30-30 30s-30-13.43-30-30 13.43-30 30-30 30 13.43 30 30z" stroke="#666" stroke-width="2" fill="#a3d977"/><use xlink:href="#h" transform="matrix(1,0,0,1,120,617) translate(9.549999999999997 14.4)"/><use xlink:href="#i" transform="matrix(1,0,0,1,120,617) translate(5.549999999999997 36)"/><path d="M1600 570c0 16.57-13.43 30-30 30s-30-13.43-30-30 13.43-30 30-30 30 13.43 30 30z" stroke="#666" stroke-width="6" fill="#c92d39"/><path d="M1591.25 570c0 11.74-9.5 21.25-21.25 21.25-11.74 0-21.25-9.5-21.25-21.25 0-11.74 9.5-21.25 21.25-21.25 11.74 0 21.25 9.5 21.25 21.25z" stroke="#666" stroke-width="2"/><use xlink:href="#j" transform="matrix(1,0,0,1,1540,600) translate(13.049999999999997 14.4)"/><path d="M240 532c0-2.76 2.24-5 5-5h150c2.76 0 5 2.24 5 5v110c0 2.76-2.24 5-5 5H245c-2.76 0-5-2.24-5-5z" stroke="#666" stroke-width="2" fill="#fff"/><use xlink:href="#k" transform="matrix(1,0,0,1,240,527) translate(16.35 51.9)"/><use xlink:href="#l" transform="matrix(1,0,0,1,240,527) translate(1.875 73.5)"/><use xlink:href="#m" transform="matrix(1,0,0,1,240,527) translate(69.425 73.5)"/><use xlink:href="#n" transform="matrix(1,0,0,1,240,527) translate(85.475 73.5)"/><path d="M1320 525c0-2.76 2.24-5 5-5h150c2.76 0 5 2.24 5 5v110c0 2.76-2.24 5-5 5h-150c-2.76 0-5-2.24-5-5z" stroke="#666" stroke-width="2" fill="#fff"/><use xlink:href="#o" transform="matrix(1,0,0,1,1320,520) translate(19.6 29.4)"/><use xlink:href="#p" transform="matrix(1,0,0,1,1320,520) translate(24.874999999999993 51)"/><use xlink:href="#q" transform="matrix(1,0,0,1,1320,520) translate(0.8500000000000085 72.60000000000001)"/><use xlink:href="#r" transform="matrix(1,0,0,1,1320,520) translate(94.55000000000001 72.60000000000001)"/><use xlink:href="#s" transform="matrix(1,0,0,1,1320,520) translate(118.85000000000001 72.60000000000001)"/><use xlink:href="#t" transform="matrix(1,0,0,1,1320,520) translate(136.8 72.60000000000001)"/><use xlink:href="#u" transform="matrix(1,0,0,1,1320,520) translate(73.55 94.20000000000002)"/><path d="M32 37c0-2.76 2.24-5 5-5h838c2.76 0 5 2.24 5 5v38c0 2.76-2.24 5-5 5H37c-2.76 0-5-2.24-5-5z" fill="none"/><use xlink:href="#v" transform="matrix(1,0,0,1,32,32) translate(0 31.11111111111111)"/><use xlink:href="#w" transform="matrix(1,0,0,1,32,32) translate(114.27160493827162 31.11111111111111)"/><path d="M31.33 80H1728" stroke="#999" stroke-width="2" fill="none"/><path d="M1040 37c0-2.76 2.24-5 5-5h678c2.76 0 5 2.24 5 5v38c0 2.76-2.24 5-5 5h-678c-2.76 0-5-2.24-5-5z" fill="none"/><use xlink:href="#x" transform="matrix(1,0,0,1,1040,32) translate(324.6666666666703 28.4444444444444)"/><use xlink:href="#y" transform="matrix(1,0,0,1,1040,32) translate(396.8271604938301 28.4444444444444)"/><use xlink:href="#z" transform="matrix(1,0,0,1,1040,32) translate(539.234567901236 28.4444444444444)"/><use xlink:href="#A" transform="matrix(1,0,0,1,1040,32) translate(563.4938271604951 28.4444444444444)"/><use xlink:href="#B" transform="matrix(1,0,0,1,1040,32) translate(613.9259259259267 28.4444444444444)"/><use xlink:href="#C" transform="matrix(1,0,0,1,1040,32) translate(638.6172839506178 28.4444444444444)"/><path d="M680 586.5l37.5-37.5 37.5 37.5-37.5 37.5z" stroke="#666" stroke-width="2" fill="#fff"/><path d="M45 960c-2.76 0-5-2.24-5-5V285c0-2.76 2.24-5 5-5h30c2.76 0 5 2.24 5 5v670c0 2.76-2.24 5-5 5z" fill="#fff"/><path d="M1600 960H45c-2.76 0-5-2.24-5-5V285c0-2.76 2.24-5 5-5h1550c2.76 0 5 2.24 5 5zM80 960V280" stroke="#666" stroke-width="2" fill="none"/><use xlink:href="#D" transform="matrix(6.123233995736766e-17,-1,1,6.123233995736766e-17,40.000000000000085,960) translate(295.95 23.6)"/><path d="M40 166c0-2.77 2.24-5 5-5h1550c2.76 0 5 2.23 5 5v29c0 2.76-2.24 5-5 5H45c-2.76 0-5-2.24-5-5z" stroke="#666" stroke-width="2" fill="#bfbfbf"/><use xlink:href="#E" transform="matrix(1,0,0,1,40,160.98817926547588) translate(721.705 24.4)"/><path d="M1435.38 519v-3.75c0-2.07 1.68-3.75 3.75-3.75H1515c2.76 0 5-2.24 5-5v-138c0-2.76-2.24-5-5-5h-497.12c-2.76 0-5-2.24-5-5V219.24" fill="none"/><path d="M1435.38 519v-3.75l1.1-2.65 2.65-1.1h25.3m25.28 0h25.3l2.95-.96 1.8-2.46.25-1.58v-23m0-23v-46m0-23v-23l-.96-2.95-2.46-1.8-1.58-.25h-20.7m-20.73 0h-41.42m-20.72 0H1370m-20.7 0h-41.43m-20.7 0h-41.44m-20.7 0h-41.44m-20.72 0h-41.43m-20.7 0h-41.44m-20.7 0h-20.72l-2.95-.96-1.8-2.46-.25-1.58v-23.2m0-23.22v-46.42m0-23.2v-23.22" stroke="#999" stroke-width="2" fill="none"/><path d="M1436.1 519.7l-.3.3h-2.83l1.7-1.7zM1017.52 218.5h-9.27l4.63-14.26z" fill="#999"/><path d="M1018.9 219.5h-12.03l6-18.5zm-9.28-2h6.52l-3.26-10.03z" fill="#999"/><path d="M857.5 532c0-2.76 2.24-5 5-5h150c2.76 0 5 2.24 5 5v110c0 2.76-2.24 5-5 5h-150c-2.76 0-5-2.24-5-5z" stroke="#666" stroke-width="2" fill="#fff"/><use xlink:href="#F" transform="matrix(1,0,0,1,857.5,527) translate(13.849999999999994 51.9)"/><use xlink:href="#G" transform="matrix(1,0,0,1,857.5,527) translate(18.849999999999994 51.9)"/><use xlink:href="#H" transform="matrix(1,0,0,1,857.5,527) translate(18.32499999999999 73.5)"/><use xlink:href="#I" transform="matrix(1,0,0,1,857.5,527) translate(93.175 73.5)"/><path d="M1120 587l37.5-37.5L1195 587l-37.5 37.5z" stroke="#666" stroke-width="2" fill="#fff"/><path d="M1018.5 587h50.04c.14 0 .25.1.25.25 0 .14.1.25.24.25h31.8" stroke="#999" stroke-width="2" fill="none"/><path d="M1018.5 588h-1v-2h1zM1115.85 587.5l-14.27 4.64v-9.28z" fill="#999"/><path d="M1119.1 587.5l-18.52 6v-12zm-16.52 3.26l10.03-3.26-10.02-3.26z" fill="#999"/><path d="M460 532c0-2.76 2.24-5 5-5h150c2.76 0 5 2.24 5 5v110c0 2.76-2.24 5-5 5H465c-2.76 0-5-2.24-5-5z" stroke="#666" stroke-width="2" fill="#fff"/><g><use xlink:href="#F" transform="matrix(1,0,0,1,460,527) translate(13.849999999999994 51.9)"/><use xlink:href="#G" transform="matrix(1,0,0,1,460,527) translate(18.849999999999994 51.9)"/><use xlink:href="#J" transform="matrix(1,0,0,1,460,527) translate(9.224999999999994 73.5)"/><use xlink:href="#I" transform="matrix(1,0,0,1,460,527) translate(102.27499999999999 73.5)"/></g><path d="M459 587" stroke="#999" stroke-width="2" fill="none"/><path fill="#999"/><path d="M455.76 587l-14.26 4.64v-9.28z" fill="#999"/><path d="M459 587l-18.5 6v-12zm-16.5 3.26l10.03-3.26-10.03-3.26z" fill="#999"/><path d="M1157.5 548.1V425c0-2.76 2.24-5 5-5H1395c2.76 0 5 2.24 5 5v75.76" stroke="#999" stroke-width="2" fill="none"/><path d="M1158.5 550.5l-1-1-1 1v-2.4h2zM1400 515.76l-4.64-14.26h9.28z" fill="#999"/><path d="M1400 519l-6-18.5h12zm-3.26-16.5l3.26 10.03 3.26-10.03z" fill="#999"/><path d="M1157.5 625.9V845c0 2.76-2.24 5-5 5H545c-2.76 0-5-2.24-5-5V666.24" stroke="#999" stroke-width="2" fill="none"/><path d="M1158.5 625.9h-2v-2.4l1 1 1-1zM544.64 665.5h-9.28l4.64-14.26z" fill="#999"/><path d="M546 666.5h-12l6-18.5zm-9.26-2h6.52L540 654.47z" fill="#999"/><path d="M621 587h39.85" stroke="#999" stroke-width="2" fill="none"/><path d="M621 588h-1v-2h1zM675.85 587l-14.27 4.64v-9.28z" fill="#999"/><path d="M679.1 587l-18.52 6v-12zm-16.52 3.26L672.6 587l-10.02-3.26z" fill="#999"/><path d="M401 587h39.76" stroke="#999" stroke-width="2" fill="none"/><path d="M401 588h-1v-2h1zM455.76 587l-14.26 4.64v-9.28z" fill="#999"/><path d="M459 587l-18.5 6v-12zm-16.5 3.26l10.03-3.26-10.03-3.26z" fill="#999"/><path d="M1160 385c0-2.76 2.24-5 5-5h230c2.76 0 5 2.24 5 5v50c0 2.76-2.24 5-5 5h-230c-2.76 0-5-2.24-5-5z" stroke="#000" stroke-opacity="0" stroke-width="2" fill="#fff" fill-opacity="0"/><g><use xlink:href="#K" transform="matrix(1,0,0,1,1165,385) translate(18.69999999999999 28.6)"/><use xlink:href="#L" transform="matrix(1,0,0,1,1165,385) translate(73.44999999999999 28.6)"/><use xlink:href="#M" transform="matrix(1,0,0,1,1165,385) translate(157.75 28.6)"/></g><path d="M720 845c0-2.76 2.24-5 5-5h230c2.76 0 5 2.24 5 5v50c0 2.76-2.24 5-5 5H725c-2.76 0-5-2.24-5-5z" stroke="#000" stroke-opacity="0" stroke-width="2" fill="#fff" fill-opacity="0"/><g><use xlink:href="#K" transform="matrix(1,0,0,1,725,845) translate(5.7749999999999915 28.6)"/><use xlink:href="#L" transform="matrix(1,0,0,1,725,845) translate(60.525 28.6)"/><use xlink:href="#N" transform="matrix(1,0,0,1,725,845) translate(144.825 28.6)"/><use xlink:href="#M" transform="matrix(1,0,0,1,725,845) translate(170.675 28.6)"/></g><defs><path fill="#333" d="M185 0v-205H76V0H24v-248h211V0h-50" id="O"/><path fill="#333" d="M110-194c64 0 96 36 96 99 0 64-35 99-97 99-61 0-95-36-95-99 0-62 34-99 96-99zm-1 164c35 0 45-28 45-65 0-40-10-65-43-65-34 0-45 26-45 65 0 36 10 65 43 65" id="P"/><path fill="#333" d="M154 0v-157H99C89-107 89-44 65-9 54 6 26 5 4 1v-33c46 5 36-55 46-98 6-25 3-25 8-60h146V0h-50" id="Q"/><path fill="#333" d="M206-58C204 19 101-3 25 0v-190h50v76c63-1 132-4 131 56zm-50 0c0-33-48-23-81-25v52c34-2 81 8 81-27" id="R"/><path fill="#333" d="M167-53c1 59-90 70-131 42-13-9-22-23-27-40l43-7c1 32 65 40 64 3-1-25-25-28-52-28v-31c25 0 50-2 50-26 0-32-58-28-59 3l-41-4c4-67 144-74 147-3 1 30-22 38-44 45 28 3 49 16 50 46" id="S"/><path fill="#333" d="M207-55C206 19 99-3 25 0v-190c69 5 172-21 177 47 2 30-24 34-43 44 27 3 48 13 48 44zm-50-2c0-36-48-24-82-26v52c34-2 82 10 82-26zm-7-80c0-31-45-20-75-22v45c31-3 75 10 75-23" id="T"/><path fill="#333" d="M133-34C117-15 103 5 69 4 32 3 11-16 11-54c-1-60 55-63 116-61 1-26-3-47-28-47-18 1-26 9-28 27l-52-2c7-38 36-58 82-57s74 22 75 68l1 82c-1 14 12 18 25 15v27c-30 8-71 5-69-32zm-48 3c29 0 43-24 42-57-32 0-66-3-65 30 0 17 8 27 23 27" id="U"/><path fill="#333" d="M10-190h156v33h-53V0H63v-157H10v-33" id="V"/><path fill="#333" d="M185-48c-13 30-37 53-82 52C43 2 14-33 14-96s30-98 90-98c62 0 83 45 84 108H66c0 31 8 55 39 56 18 0 30-7 34-22zm-45-69c5-46-57-63-70-21-2 6-4 13-4 21h74" id="W"/><g id="a"><use transform="matrix(0.05,0,0,0.05,0,0)" xlink:href="#O"/><use transform="matrix(0.05,0,0,0.05,12.9,0)" xlink:href="#P"/><use transform="matrix(0.05,0,0,0.05,23.400000000000002,0)" xlink:href="#Q"/><use transform="matrix(0.05,0,0,0.05,34.800000000000004,0)" xlink:href="#R"/><use transform="matrix(0.05,0,0,0.05,45.85000000000001,0)" xlink:href="#S"/><use transform="matrix(0.05,0,0,0.05,54.300000000000004,0)" xlink:href="#P"/><use transform="matrix(0.05,0,0,0.05,65.25,0)" xlink:href="#T"/><use transform="matrix(0.05,0,0,0.05,76.05,0)" xlink:href="#U"/><use transform="matrix(0.05,0,0,0.05,86.05,0)" xlink:href="#V"/><use transform="matrix(0.05,0,0,0.05,94.85,0)" xlink:href="#W"/><use transform="matrix(0.05,0,0,0.05,104.84999999999998,0)" xlink:href="#Q"/><use transform="matrix(0.05,0,0,0.05,116.25,0)" xlink:href="#R"/></g><path fill="#333" d="M147-157h-42c-8 43-13 90-29 124h71v-124zM24-33c25-41 30-96 40-157h132v157h26V72h-43V0H46v72H2V-33h22" id="X"/><path fill="#333" d="M71-190L68-54l78-136h50V0h-45l3-136L78 0H25v-190h46" id="Y"/><g id="b"><use transform="matrix(0.05,0,0,0.05,0,0)" xlink:href="#T"/><use transform="matrix(0.05,0,0,0.05,11.05,0)" xlink:href="#T"/><use transform="matrix(0.05,0,0,0.05,21.85,0)" xlink:href="#P"/><use transform="matrix(0.05,0,0,0.05,32.550000000000004,0)" xlink:href="#X"/><use transform="matrix(0.05,0,0,0.05,43.95,0)" xlink:href="#Y"/><use transform="matrix(0.05,0,0,0.05,55,0)" xlink:href="#V"/></g><path fill="#333" d="M135-194c53 0 70 44 70 98 0 56-19 98-73 100-31 1-45-17-59-34 3 33 2 69 2 105H25l-1-265h48c2 10 0 23 3 31 11-24 29-35 60-35zM114-30c33 0 39-31 40-66 0-38-9-64-40-64-56 0-55 130 0 130" id="Z"/><path fill="#333" d="M190-63c-7 42-38 67-86 67-59 0-84-38-90-98-12-110 154-137 174-36l-49 2c-2-19-15-32-35-32-30 0-35 28-38 64-6 74 65 87 74 30" id="aa"/><g id="c"><use transform="matrix(0.05,0,0,0.05,0,0)" xlink:href="#U"/><use transform="matrix(0.05,0,0,0.05,10,0)" xlink:href="#X"/><use transform="matrix(0.05,0,0,0.05,21.4,0)" xlink:href="#Z"/><use transform="matrix(0.05,0,0,0.05,32.35,0)" xlink:href="#W"/><use transform="matrix(0.05,0,0,0.05,42.1,0)" xlink:href="#aa"/></g><path fill="#333" d="M75-190v75h68v-75h49V0h-49v-81H75V0H25v-190h50" id="ab"/><path fill="#333" d="M144 0l-44-69L55 0H2l70-98-66-92h53l41 62 40-62h54l-67 91 71 99h-54" id="ac"/><g id="d"><use transform="matrix(0.05,0,0,0.05,0,0)" xlink:href="#ab"/><use transform="matrix(0.05,0,0,0.05,10.850000000000001,0)" xlink:href="#U"/><use transform="matrix(0.05,0,0,0.05,20.85,0)" xlink:href="#ac"/><use transform="matrix(0.05,0,0,0.05,30.400000000000002,0)" xlink:href="#P"/><use transform="matrix(0.05,0,0,0.05,41.1,0)" xlink:href="#X"/><use transform="matrix(0.05,0,0,0.05,52.5,0)" xlink:href="#Y"/><use transform="matrix(0.05,0,0,0.05,63.54999999999999,0)" xlink:href="#V"/></g><g id="e"><use transform="matrix(0.05,0,0,0.05,0,0)" xlink:href="#U"/><use transform="matrix(0.05,0,0,0.05,10,0)" xlink:href="#X"/><use transform="matrix(0.05,0,0,0.05,21.4,0)" xlink:href="#Z"/><use transform="matrix(0.05,0,0,0.05,32.35,0)" xlink:href="#W"/><use transform="matrix(0.05,0,0,0.05,42.1,0)" xlink:href="#aa"/></g><g id="f"><use transform="matrix(0.05,0,0,0.05,0,0)" xlink:href="#ab"/><use transform="matrix(0.05,0,0,0.05,10.850000000000001,0)" xlink:href="#U"/></g><path fill="#333" d="M25-190h50v81c22-2 24-18 33-36l22-45h49c-19 30-32 64-55 90L180 0h-50L89-81c-3 2-9 2-14 2V0H25v-190" id="ad"/><g id="g"><use transform="matrix(0.05,0,0,0.05,0,0)" xlink:href="#ad"/><use transform="matrix(0.05,0,0,0.05,9,0)" xlink:href="#U"/><use transform="matrix(0.05,0,0,0.05,19,0)" xlink:href="#Z"/><use transform="matrix(0.05,0,0,0.05,29.700000000000003,0)" xlink:href="#V"/><use transform="matrix(0.05,0,0,0.05,38.5,0)" xlink:href="#W"/></g><path fill="#333" d="M169-182c-1-43-94-46-97-3 18 66 151 10 154 114 3 95-165 93-204 36-6-8-10-19-12-30l50-8c3 46 112 56 116 5-17-69-150-10-154-114-4-87 153-88 188-35 5 8 8 18 10 28" id="ae"/><path fill="#333" d="M115-3C79 11 28 4 28-45v-112H4v-33h27l15-45h31v45h36v33H77v99c-1 23 16 31 38 25v30" id="af"/><path fill="#333" d="M133-34C117-15 103 5 69 4 32 3 11-16 11-54c-1-60 55-63 116-61 1-26-3-47-28-47-18 1-26 9-28 27l-52-2c7-38 36-58 82-57s74 22 75 68l1 82c-1 14 12 18 25 15v27c-30 8-71 5-69-32zm-48 3c29 0 43-24 42-57-32 0-66-3-65 30 0 17 8 27 23 27" id="ag"/><path fill="#333" d="M135-150c-39-12-60 13-60 57V0H25l-1-190h47c2 13-1 29 3 40 6-28 27-53 61-41v41" id="ah"/><g id="h"><use transform="matrix(0.05,0,0,0.05,0,0)" xlink:href="#ae"/><use transform="matrix(0.05,0,0,0.05,12,0)" xlink:href="#af"/><use transform="matrix(0.05,0,0,0.05,17.95,0)" xlink:href="#ag"/><use transform="matrix(0.05,0,0,0.05,27.950000000000003,0)" xlink:href="#ah"/><use transform="matrix(0.05,0,0,0.05,34.95,0)" xlink:href="#af"/></g><path fill="#333" d="M24 0v-248h195v40H76v63h132v40H76v65h150V0H24" id="ai"/><path fill="#333" d="M128 0H69L1-190h53L99-40l48-150h52" id="aj"/><path fill="#333" d="M185-48c-13 30-37 53-82 52C43 2 14-33 14-96s30-98 90-98c62 0 83 45 84 108H66c0 31 8 55 39 56 18 0 30-7 34-22zm-45-69c5-46-57-63-70-21-2 6-4 13-4 21h74" id="ak"/><path fill="#333" d="M135-194c87-1 58 113 63 194h-50c-7-57 23-157-34-157-59 0-34 97-39 157H25l-1-190h47c2 12-1 28 3 38 12-26 28-41 61-42" id="al"/><g id="i"><use transform="matrix(0.05,0,0,0.05,0,0)" xlink:href="#ai"/><use transform="matrix(0.05,0,0,0.05,12,0)" xlink:href="#aj"/><use transform="matrix(0.05,0,0,0.05,22,0)" xlink:href="#ak"/><use transform="matrix(0.05,0,0,0.05,32,0)" xlink:href="#al"/><use transform="matrix(0.05,0,0,0.05,42.95,0)" xlink:href="#af"/></g><path fill="#333" d="M88-194c31-1 46 15 58 34l-1-101h50l1 261h-48c-2-10 0-23-3-31C134-8 116 4 84 4 32 4 16-41 15-95c0-56 19-97 73-99zm17 164c33 0 40-30 41-66 1-37-9-64-41-64s-38 30-39 65c0 43 13 65 39 65" id="am"/><g id="j"><use transform="matrix(0.05,0,0,0.05,0,0)" xlink:href="#ai"/><use transform="matrix(0.05,0,0,0.05,12,0)" xlink:href="#al"/><use transform="matrix(0.05,0,0,0.05,22.950000000000003,0)" xlink:href="#am"/></g><g id="k"><use transform="matrix(0.05,0,0,0.05,0,0)" xlink:href="#O"/><use transform="matrix(0.05,0,0,0.05,12.9,0)" xlink:href="#P"/><use transform="matrix(0.05,0,0,0.05,23.400000000000002,0)" xlink:href="#Q"/><use transform="matrix(0.05,0,0,0.05,34.800000000000004,0)" xlink:href="#R"/><use transform="matrix(0.05,0,0,0.05,45.85000000000001,0)" xlink:href="#S"/><use transform="matrix(0.05,0,0,0.05,54.300000000000004,0)" xlink:href="#P"/><use transform="matrix(0.05,0,0,0.05,65.25,0)" xlink:href="#T"/><use transform="matrix(0.05,0,0,0.05,76.05,0)" xlink:href="#U"/><use transform="matrix(0.05,0,0,0.05,86.05,0)" xlink:href="#V"/><use transform="matrix(0.05,0,0,0.05,94.85,0)" xlink:href="#W"/><use transform="matrix(0.05,0,0,0.05,104.84999999999998,0)" xlink:href="#Q"/><use transform="matrix(0.05,0,0,0.05,116.25,0)" xlink:href="#R"/></g><g id="l"><use transform="matrix(0.05,0,0,0.05,0,0)" xlink:href="#T"/><use transform="matrix(0.05,0,0,0.05,11.05,0)" xlink:href="#ac"/><use transform="matrix(0.05,0,0,0.05,20.6,0)" xlink:href="#P"/><use transform="matrix(0.05,0,0,0.05,31.3,0)" xlink:href="#X"/><use transform="matrix(0.05,0,0,0.05,42.7,0)" xlink:href="#Y"/><use transform="matrix(0.05,0,0,0.05,53.75,0)" xlink:href="#V"/></g><use transform="matrix(0.05,0,0,0.05,0,0)" xlink:href="#T" id="m"/><path fill="#333" d="M153 0h-38L66-156 68 0H25v-190h66c14 50 33 95 43 149 9-54 29-100 43-149h64V0h-43l3-156" id="an"/><path fill="#333" d="M123 10C108 53 80 86 19 72V37c35 8 53-11 59-39L3-190h52l48 148c12-52 28-100 44-148h51" id="ao"/><g id="n"><use transform="matrix(0.05,0,0,0.05,0,0)" xlink:href="#aa"/><use transform="matrix(0.05,0,0,0.05,10,0)" xlink:href="#Y"/><use transform="matrix(0.05,0,0,0.05,21.05,0)" xlink:href="#aa"/><use transform="matrix(0.05,0,0,0.05,31.05,0)" xlink:href="#V"/><use transform="matrix(0.05,0,0,0.05,39.85,0)" xlink:href="#W"/><use transform="matrix(0.05,0,0,0.05,49.6,0)" xlink:href="#an"/><use transform="matrix(0.05,0,0,0.05,62.650000000000006,0)" xlink:href="#ao"/></g><path fill="#333" d="M98-112c-6 3-14 5-22 6V0H24v-248h52v106c24-6 35-30 47-49l36-57h53l-77 111L220 0h-56" id="ap"/><path fill="#333" d="M105-80l-17-2L49 0H-3l56-100c-21-25-36-61-54-90h48c17 27 27 62 51 82 2 1 5 1 7 1v-83h45v83c34-10 38-57 58-83h48c-18 30-33 63-54 90L258 0h-52l-39-82-17 2V0h-45v-80" id="aq"/><g id="o"><use transform="matrix(0.05,0,0,0.05,0,0)" xlink:href="#ap"/><use transform="matrix(0.05,0,0,0.05,10.950000000000001,0)" xlink:href="#Y"/><use transform="matrix(0.05,0,0,0.05,22,0)" xlink:href="#Q"/><use transform="matrix(0.05,0,0,0.05,33.4,0)" xlink:href="#Q"/><use transform="matrix(0.05,0,0,0.05,44.55,0)" xlink:href="#P"/><use transform="matrix(0.05,0,0,0.05,55.25,0)" xlink:href="#an"/><use transform="matrix(0.05,0,0,0.05,68.55,0)" xlink:href="#W"/><use transform="matrix(0.05,0,0,0.05,78.3,0)" xlink:href="#V"/><use transform="matrix(0.05,0,0,0.05,87.1,0)" xlink:href="#Z"/><use transform="matrix(0.05,0,0,0.05,98.05,0)" xlink:href="#U"/><use transform="matrix(0.05,0,0,0.05,108.05000000000001,0)" xlink:href="#aq"/></g><path fill="#333" d="M111-30c34 0 45-22 45-58s-9-59-42-59c-34 0-45 23-45 59 0 35 10 58 42 58zm-65-95c11-34 33-56 77-56 59 0 85 31 85 92 1 63-35 89-97 93C-12 13-8-201 74-238c33-15 81-20 124-26v41c-70 13-161 1-152 98" id="ar"/><path fill="#333" d="M184-268c7 76-131 80-142 15-1-5-1-10-1-15h39c1 22 10 35 32 35s31-13 32-35h40zM71-190L68-54l78-136h50V0h-45l3-136L78 0H25v-190h46" id="as"/><path fill="#333" d="M274 0H25v-190h46v157h56v-157h46v157h55v-157h46V0" id="at"/><path fill="#333" d="M140-190v33H75V0H25v-190h115" id="au"/><g id="p"><use transform="matrix(0.05,0,0,0.05,0,0)" xlink:href="#ar"/><use transform="matrix(0.05,0,0,0.05,10.650000000000002,0)" xlink:href="#Q"/><use transform="matrix(0.05,0,0,0.05,22.050000000000004,0)" xlink:href="#Y"/><use transform="matrix(0.05,0,0,0.05,33.10000000000001,0)" xlink:href="#aq"/><use transform="matrix(0.05,0,0,0.05,46.05000000000001,0)" xlink:href="#U"/><use transform="matrix(0.05,0,0,0.05,56.05000000000001,0)" xlink:href="#as"/><use transform="matrix(0.05,0,0,0.05,67.10000000000001,0)" xlink:href="#at"/><use transform="matrix(0.05,0,0,0.05,82.10000000000001,0)" xlink:href="#W"/><use transform="matrix(0.05,0,0,0.05,92.10000000000001,0)" xlink:href="#au"/><use transform="matrix(0.05,0,0,0.05,99.30000000000001,0)" xlink:href="#P"/></g><g id="q"><use transform="matrix(0.05,0,0,0.05,0,0)" xlink:href="#an"/><use transform="matrix(0.05,0,0,0.05,13.05,0)" xlink:href="#U"/><use transform="matrix(0.05,0,0,0.05,23.05,0)" xlink:href="#Z"/><use transform="matrix(0.05,0,0,0.05,34,0)" xlink:href="#at"/><use transform="matrix(0.05,0,0,0.05,49,0)" xlink:href="#Z"/><use transform="matrix(0.05,0,0,0.05,59.7,0)" xlink:href="#ao"/><use transform="matrix(0.05,0,0,0.05,69.9,0)" xlink:href="#V"/><use transform="matrix(0.05,0,0,0.05,78.7,0)" xlink:href="#U"/></g><g id="r"><use transform="matrix(0.05,0,0,0.05,0,0)" xlink:href="#P"/><use transform="matrix(0.05,0,0,0.05,10.500000000000002,0)" xlink:href="#V"/></g><path fill="#333" d="M199 0l-22-63H83L61 0H9l90-248h61L250 0h-51zm-33-102l-36-108c-10 38-24 72-36 108h72" id="av"/><use transform="matrix(0.05,0,0,0.05,0,0)" xlink:href="#av" id="s"/><g id="t"><use transform="matrix(0.05,0,0,0.05,0,0)" xlink:href="#X"/><use transform="matrix(0.05,0,0,0.05,11.4,0)" xlink:href="#P"/></g><path fill="#333" d="M76-149c81-1 171-10 170 73C244 22 120-3 24 0v-248h187v40H76v59zm0 109c48-3 118 14 118-35 0-47-71-32-118-34v69" id="aw"/><use transform="matrix(0.05,0,0,0.05,0,0)" xlink:href="#aw" id="u"/><path fill="#999" d="M182-130c37 4 62 22 62 59C244 23 116-4 24 0v-248c84 5 203-23 205 63 0 31-19 50-47 55zM76-148c40-3 101 13 101-30 0-44-60-28-101-31v61zm0 110c48-3 116 14 116-37 0-48-69-32-116-35v72" id="ax"/><path fill="#999" d="M24-248c93 1 206-16 204 79-1 75-69 88-152 82V0H24v-248zm52 121c47 0 100 7 100-41 0-47-54-39-100-39v80" id="ay"/><path fill="#999" d="M230 0l2-204L168 0h-37L68-204 70 0H24v-248h70l56 185 57-185h69V0h-46" id="az"/><path fill="#999" d="M175 0L67-191c6 58 2 128 3 191H24v-248h59L193-55c-6-58-2-129-3-193h46V0h-61" id="aA"/><g id="v"><use transform="matrix(0.09876543209876544,0,0,0.09876543209876544,0,0)" xlink:href="#ax"/><use transform="matrix(0.09876543209876544,0,0,0.09876543209876544,25.58024691358025,0)" xlink:href="#ay"/><use transform="matrix(0.09876543209876544,0,0,0.09876543209876544,49.283950617283956,0)" xlink:href="#az"/><use transform="matrix(0.09876543209876544,0,0,0.09876543209876544,78.81481481481482,0)" xlink:href="#aA"/></g><path fill="#999" d="M182-182c0 78-84 86-111 141h115V0H12c-6-101 99-100 120-180 1-22-12-31-33-32-23 0-32 14-35 34l-49-3c5-45 32-70 84-70 51 0 83 22 83 69" id="aB"/><path fill="#999" d="M24 0v-54h51V0H24" id="aC"/><path fill="#999" d="M101-251c68 0 84 54 84 127C185-50 166 4 99 4S15-52 14-124c-1-75 17-127 87-127zm-1 216c37-5 36-46 36-89s4-89-36-89c-39 0-36 45-36 89 0 43-3 85 36 89" id="aD"/><g id="w"><use transform="matrix(0.09876543209876544,0,0,0.09876543209876544,0,0)" xlink:href="#aB"/><use transform="matrix(0.09876543209876544,0,0,0.09876543209876544,19.75308641975309,0)" xlink:href="#aC"/><use transform="matrix(0.09876543209876544,0,0,0.09876543209876544,29.629629629629633,0)" xlink:href="#aD"/></g><path fill="#999" d="M30-248c87 1 191-15 191 75 0 78-77 80-158 76V0H30v-248zm33 125c57 0 124 11 124-50 0-59-68-47-124-48v98" id="aE"/><path fill="#999" d="M100-194c62-1 85 37 85 99 1 63-27 99-86 99S16-35 15-95c0-66 28-99 85-99zM99-20c44 1 53-31 53-75 0-43-8-75-51-75s-53 32-53 75 10 74 51 75" id="aF"/><path fill="#999" d="M138 0h-27L54-167c3 53 2 111 2 167H25v-190h49c16 56 39 106 51 166 11-61 34-110 50-166h48V0h-31l2-168" id="aG"/><path fill="#999" d="M141-36C126-15 110 5 73 4 37 3 15-17 15-53c-1-64 63-63 125-63 3-35-9-54-41-54-24 1-41 7-42 31l-33-3c5-37 33-52 76-52 45 0 72 20 72 64v82c-1 20 7 32 28 27v20c-31 9-61-2-59-35zM48-53c0 20 12 33 32 33 41-3 63-29 60-74-43 2-92-5-92 41" id="aH"/><path fill="#999" d="M57-190v80h85v-80h32V0h-32v-87H57V0H25v-190h32" id="aI"/><g id="x"><use transform="matrix(0.06172839506172778,0,0,0.06172839506172778,0,0)" xlink:href="#aE"/><use transform="matrix(0.06172839506172778,0,0,0.06172839506172778,13.827160493827023,0)" xlink:href="#aF"/><use transform="matrix(0.06172839506172778,0,0,0.06172839506172778,26.17283950617258,0)" xlink:href="#aG"/><use transform="matrix(0.06172839506172778,0,0,0.06172839506172778,41.41975308641934,0)" xlink:href="#aH"/><use transform="matrix(0.06172839506172778,0,0,0.06172839506172778,53.7654320987649,0)" xlink:href="#aI"/></g><path fill="#999" d="M188-248v28H63V0H30v-248h158" id="aJ"/><path fill="#999" d="M153 0v-167H87C74-108 81-27 38 0 29 5 12 6 2 1v-22c51 4 39-64 49-112 5-25 4-25 8-57h126V0h-32" id="aK"/><path fill="#999" d="M176-55C176 11 93 0 25 0v-190c61 3 142-15 144 47 1 29-21 35-39 44 27 3 46 16 46 44zm-34 0c0-41-47-30-85-32v64c38-1 85 8 85-32zm-6-83c0-36-44-26-79-28v56c34-2 79 8 79-28" id="aL"/><path fill="#999" d="M100-194c63 0 86 42 84 106H49c0 40 14 67 53 68 26 1 43-12 49-29l28 8c-11 28-37 45-77 45C44 4 14-33 15-96c1-61 26-98 85-98zm52 81c6-60-76-77-97-28-3 7-6 17-6 28h103" id="aM"/><path fill="#999" d="M25 0v-190h32v167h72v-167h31v167h72v-167h32V0H25" id="aN"/><path fill="#999" d="M75-87c-4 1-14 3-19 3V0H24v-190h32v83c26-2 31-21 43-41l26-42h33l-61 86L159 0h-35" id="aO"/><path fill="#999" d="M56-190L54-37l88-153h34V0h-30l2-153L59 0H25v-190h31" id="aP"/><g id="y"><use transform="matrix(0.06172839506172778,0,0,0.06172839506172778,0,0)" xlink:href="#aJ"/><use transform="matrix(0.06172839506172778,0,0,0.06172839506172778,10.493827160493723,0)" xlink:href="#aF"/><use transform="matrix(0.06172839506172778,0,0,0.06172839506172778,22.345679012345457,0)" xlink:href="#aK"/><use transform="matrix(0.06172839506172778,0,0,0.06172839506172778,35.5555555555552,0)" xlink:href="#aF"/><use transform="matrix(0.06172839506172778,0,0,0.06172839506172778,47.90123456790076,0)" xlink:href="#aL"/><use transform="matrix(0.06172839506172778,0,0,0.06172839506172778,59.44444444444385,0)" xlink:href="#aM"/><use transform="matrix(0.06172839506172778,0,0,0.06172839506172778,71.79012345678942,0)" xlink:href="#aN"/><use transform="matrix(0.06172839506172778,0,0,0.06172839506172778,89.56790123456702,0)" xlink:href="#aO"/><use transform="matrix(0.06172839506172778,0,0,0.06172839506172778,99.25925925925827,0)" xlink:href="#aP"/><use transform="matrix(0.06172839506172778,0,0,0.06172839506172778,111.66666666666555,0)" xlink:href="#aI"/></g><path fill="#999" d="M32 76v-337h29V76H32" id="aQ"/><use transform="matrix(0.06172839506172778,0,0,0.06172839506172778,0,0)" xlink:href="#aQ" id="z"/><path fill="#999" d="M205 0l-28-72H64L36 0H1l101-248h38L239 0h-34zm-38-99l-47-123c-12 45-31 82-46 123h93" id="aR"/><path fill="#999" d="M115-194c55 1 70 41 70 98S169 2 115 4C84 4 66-9 55-30l1 105H24l-1-265h31l2 30c10-21 28-34 59-34zm-8 174c40 0 45-34 45-75s-6-73-45-74c-42 0-51 32-51 76 0 43 10 73 51 73" id="aS"/><path fill="#999" d="M114-163C36-179 61-72 57 0H25l-1-190h30c1 12-1 29 2 39 6-27 23-49 58-41v29" id="aT"/><path fill="#999" d="M24-231v-30h32v30H24zM24 0v-190h32V0H24" id="aU"/><path fill="#999" d="M24 0v-261h32V0H24" id="aV"/><g id="A"><use transform="matrix(0.06172839506172778,0,0,0.06172839506172778,0,0)" xlink:href="#aR"/><use transform="matrix(0.06172839506172778,0,0,0.06172839506172778,14.814814814814667,0)" xlink:href="#aS"/><use transform="matrix(0.06172839506172778,0,0,0.06172839506172778,27.160493827160224,0)" xlink:href="#aT"/><use transform="matrix(0.06172839506172778,0,0,0.06172839506172778,34.50617283950583,0)" xlink:href="#aU"/><use transform="matrix(0.06172839506172778,0,0,0.06172839506172778,39.382716049382324,0)" xlink:href="#aV"/></g><path fill="#999" d="M110-160c48 1 74 30 74 79 0 53-28 85-80 85-65 0-83-55-86-122-5-90 50-162 133-122 14 7 22 21 27 39l-31 6c-5-40-67-38-82-6-9 19-15 44-15 74 11-20 30-34 60-33zm-7 138c34 0 49-23 49-58s-16-56-50-56c-29 0-50 16-49 49 1 36 15 65 50 65" id="aW"/><path fill="#999" d="M68-38c1 34 0 65-14 84H32c9-13 17-26 17-46H33v-38h35" id="aX"/><g id="B"><use transform="matrix(0.06172839506172778,0,0,0.06172839506172778,0,0)" xlink:href="#aW"/><use transform="matrix(0.06172839506172778,0,0,0.06172839506172778,12.345679012345556,0)" xlink:href="#aX"/></g><path fill="#999" d="M101-251c82-7 93 87 43 132L82-64C71-53 59-42 53-27h129V0H18c2-99 128-94 128-182 0-28-16-43-45-43s-46 15-49 41l-32-3c6-41 34-60 81-64" id="aY"/><path fill="#999" d="M101-251c68 0 85 55 85 127S166 4 100 4C33 4 14-52 14-124c0-73 17-127 87-127zm-1 229c47 0 54-49 54-102s-4-102-53-102c-51 0-55 48-55 102 0 53 5 102 54 102" id="aZ"/><path fill="#999" d="M27 0v-27h64v-190l-56 39v-29l58-41h29v221h61V0H27" id="ba"/><path fill="#999" d="M134-131c28 9 52 24 51 62-1 50-34 73-85 73S17-19 16-69c0-36 21-54 49-61-75-25-45-126 34-121 46 3 78 18 79 63 0 33-17 51-44 57zm-34-11c31 1 46-15 46-44 0-28-17-43-47-42-29 0-46 13-45 42 1 28 16 44 46 44zm1 122c35 0 51-18 51-52 0-30-18-46-53-46-33 0-51 17-51 47 0 34 19 51 53 51" id="bb"/><g id="C"><use transform="matrix(0.06172839506172778,0,0,0.06172839506172778,0,0)" xlink:href="#aY"/><use transform="matrix(0.06172839506172778,0,0,0.06172839506172778,12.345679012345556,0)" xlink:href="#aZ"/><use transform="matrix(0.06172839506172778,0,0,0.06172839506172778,24.691358024691112,0)" xlink:href="#ba"/><use transform="matrix(0.06172839506172778,0,0,0.06172839506172778,37.03703703703667,0)" xlink:href="#bb"/></g><path fill="#333" d="M212-179c-10-28-35-45-73-45-59 0-87 40-87 99 0 60 29 101 89 101 43 0 62-24 78-52l27 14C228-24 195 4 139 4 59 4 22-46 18-125c-6-104 99-153 187-111 19 9 31 26 39 46" id="bc"/><path fill="#333" d="M30 0v-248h30L58-37l132-211h39V0h-30l1-209L70 0H30" id="bd"/><path fill="#333" d="M127-220V0H93v-220H8v-28h204v28h-85" id="be"/><path fill="#333" d="M30 0v-248h187v28H63v79h144v27H63v87h162V0H30" id="bf"/><path fill="#333" d="M240 0l2-218c-23 76-54 145-80 218h-23L58-218 59 0H30v-248h44l77 211c21-75 51-140 76-211h43V0h-30" id="bg"/><path fill="#333" d="M205 0l-28-72H64L36 0H1l101-248h38L239 0h-34zm-38-99l-47-123c-12 45-31 82-46 123h93" id="bh"/><g id="D"><use transform="matrix(0.05,0,0,0.05,0,0)" xlink:href="#bc"/><use transform="matrix(0.05,0,0,0.05,12.950000000000001,0)" xlink:href="#bd"/><use transform="matrix(0.05,0,0,0.05,25.85,0)" xlink:href="#bc"/><use transform="matrix(0.05,0,0,0.05,38.2,0)" xlink:href="#be"/><use transform="matrix(0.05,0,0,0.05,49.150000000000006,0)" xlink:href="#bf"/><use transform="matrix(0.05,0,0,0.05,61.150000000000006,0)" xlink:href="#bg"/><use transform="matrix(0.05,0,0,0.05,76.10000000000001,0)" xlink:href="#bh"/></g><path fill="#333" d="M197 0v-219H63V0H30v-248h201V0h-34" id="bi"/><path fill="#333" d="M100-194c62-1 85 37 85 99 1 63-27 99-86 99S16-35 15-95c0-66 28-99 85-99zM99-20c44 1 53-31 53-75 0-43-8-75-51-75s-53 32-53 75 10 74 51 75" id="bj"/><path fill="#333" d="M153 0v-167H87C74-108 81-27 38 0 29 5 12 6 2 1v-22c51 4 39-64 49-112 5-25 4-25 8-57h126V0h-32" id="bk"/><path fill="#333" d="M173-56C173 11 92 0 25 0v-190h32v80c58-2 117-2 116 54zm-34 0c0-39-44-31-82-32v66c39 0 82 6 82-34" id="bl"/><path fill="#333" d="M152-53C154 19 21 22 9-41l28-8c5 36 84 42 81-4-1-29-28-34-58-35v-24c28 0 55-4 55-30 0-19-14-29-34-28-20 0-35 7-38 25l-28-3c4-33 30-46 66-46 37 0 66 15 66 50 0 27-20 41-44 44 27 5 48 17 49 47" id="bm"/><path fill="#333" d="M176-55C176 11 93 0 25 0v-190c61 3 142-15 144 47 1 29-21 35-39 44 27 3 46 16 46 44zm-34 0c0-41-47-30-85-32v64c38-1 85 8 85-32zm-6-83c0-36-44-26-79-28v56c34-2 79 8 79-28" id="bn"/><path fill="#333" d="M141-36C126-15 110 5 73 4 37 3 15-17 15-53c-1-64 63-63 125-63 3-35-9-54-41-54-24 1-41 7-42 31l-33-3c5-37 33-52 76-52 45 0 72 20 72 64v82c-1 20 7 32 28 27v20c-31 9-61-2-59-35zM48-53c0 20 12 33 32 33 41-3 63-29 60-74-43 2-92-5-92 41" id="bo"/><path fill="#333" d="M6-190h153v23H98V0H67v-167H6v-23" id="bp"/><path fill="#333" d="M100-194c63 0 86 42 84 106H49c0 40 14 67 53 68 26 1 43-12 49-29l28 8c-11 28-37 45-77 45C44 4 14-33 15-96c1-61 26-98 85-98zm52 81c6-60-76-77-97-28-3 7-6 17-6 28h103" id="bq"/><g id="E"><use transform="matrix(0.05,0,0,0.05,0,0)" xlink:href="#bi"/><use transform="matrix(0.05,0,0,0.05,12.9,0)" xlink:href="#bj"/><use transform="matrix(0.05,0,0,0.05,22.5,0)" xlink:href="#bk"/><use transform="matrix(0.05,0,0,0.05,33,0)" xlink:href="#bl"/><use transform="matrix(0.05,0,0,0.05,42.35,0)" xlink:href="#bm"/><use transform="matrix(0.05,0,0,0.05,50.4,0)" xlink:href="#bj"/><use transform="matrix(0.05,0,0,0.05,60.400000000000006,0)" xlink:href="#bn"/><use transform="matrix(0.05,0,0,0.05,69.75,0)" xlink:href="#bo"/><use transform="matrix(0.05,0,0,0.05,79.35,0)" xlink:href="#bp"/><use transform="matrix(0.05,0,0,0.05,87.35,0)" xlink:href="#bq"/><use transform="matrix(0.05,0,0,0.05,96.75,0)" xlink:href="#bk"/><use transform="matrix(0.05,0,0,0.05,107.25,0)" xlink:href="#bl"/></g><g id="G"><use transform="matrix(0.05,0,0,0.05,0,0)" xlink:href="#O"/><use transform="matrix(0.05,0,0,0.05,12.9,0)" xlink:href="#P"/><use transform="matrix(0.05,0,0,0.05,23.400000000000002,0)" xlink:href="#Q"/><use transform="matrix(0.05,0,0,0.05,34.800000000000004,0)" xlink:href="#R"/><use transform="matrix(0.05,0,0,0.05,45.85000000000001,0)" xlink:href="#S"/><use transform="matrix(0.05,0,0,0.05,54.300000000000004,0)" xlink:href="#P"/><use transform="matrix(0.05,0,0,0.05,65.25,0)" xlink:href="#T"/><use transform="matrix(0.05,0,0,0.05,76.05,0)" xlink:href="#U"/><use transform="matrix(0.05,0,0,0.05,86.05,0)" xlink:href="#V"/><use transform="matrix(0.05,0,0,0.05,94.85,0)" xlink:href="#W"/><use transform="matrix(0.05,0,0,0.05,104.84999999999998,0)" xlink:href="#Q"/><use transform="matrix(0.05,0,0,0.05,116.25,0)" xlink:href="#R"/></g><path fill="#333" d="M206-58C204 19 101-3 25 0v-190h50v76c63-1 132-4 131 56zm-50 0c0-33-48-23-81-25v52c34-2 81 8 81-27zm77 58v-190h49V0h-49" id="br"/><g id="H"><use transform="matrix(0.05,0,0,0.05,0,0)" xlink:href="#T"/><use transform="matrix(0.05,0,0,0.05,11.05,0)" xlink:href="#br"/><use transform="matrix(0.05,0,0,0.05,26.400000000000002,0)" xlink:href="#ar"/><use transform="matrix(0.05,0,0,0.05,37.5,0)" xlink:href="#Z"/><use transform="matrix(0.05,0,0,0.05,48.45,0)" xlink:href="#U"/><use transform="matrix(0.05,0,0,0.05,58.45,0)" xlink:href="#Q"/></g><path fill="#333" d="M135-73C95-53 15-45 15-113v-77h49c4 41-18 104 39 95l32-8v-87h49V0h-49v-73" id="bs"/><g id="I"><use transform="matrix(0.05,0,0,0.05,0,0)" xlink:href="#V"/><use transform="matrix(0.05,0,0,0.05,8.55,0)" xlink:href="#P"/><use transform="matrix(0.05,0,0,0.05,19.050000000000004,0)" xlink:href="#bs"/><use transform="matrix(0.05,0,0,0.05,29.500000000000007,0)" xlink:href="#ad"/><use transform="matrix(0.05,0,0,0.05,38.50000000000001,0)" xlink:href="#ao"/></g><g id="J"><use transform="matrix(0.05,0,0,0.05,0,0)" xlink:href="#T"/><use transform="matrix(0.05,0,0,0.05,11.05,0)" xlink:href="#br"/><use transform="matrix(0.05,0,0,0.05,26.400000000000002,0)" xlink:href="#ar"/><use transform="matrix(0.05,0,0,0.05,37.5,0)" xlink:href="#Y"/><use transform="matrix(0.05,0,0,0.05,48.55,0)" xlink:href="#Z"/><use transform="matrix(0.05,0,0,0.05,59.5,0)" xlink:href="#U"/><use transform="matrix(0.05,0,0,0.05,69.5,0)" xlink:href="#W"/><use transform="matrix(0.05,0,0,0.05,79.25,0)" xlink:href="#V"/></g><path fill="#333" d="M136-208V0H84v-208H4v-40h212v40h-80" id="bt"/><g id="K"><use transform="matrix(0.05,0,0,0.05,0,0)" xlink:href="#bt"/><use transform="matrix(0.05,0,0,0.05,9.8,0)" xlink:href="#P"/><use transform="matrix(0.05,0,0,0.05,20.300000000000004,0)" xlink:href="#bs"/><use transform="matrix(0.05,0,0,0.05,30.750000000000007,0)" xlink:href="#ad"/><use transform="matrix(0.05,0,0,0.05,39.75000000000001,0)" xlink:href="#U"/></g><g id="L"><use transform="matrix(0.05,0,0,0.05,0,0)" xlink:href="#T"/><use transform="matrix(0.05,0,0,0.05,11.05,0)" xlink:href="#br"/><use transform="matrix(0.05,0,0,0.05,26.400000000000002,0)" xlink:href="#ar"/><use transform="matrix(0.05,0,0,0.05,37.5,0)" xlink:href="#Z"/><use transform="matrix(0.05,0,0,0.05,48.45,0)" xlink:href="#U"/><use transform="matrix(0.05,0,0,0.05,58.45,0)" xlink:href="#ab"/><use transform="matrix(0.05,0,0,0.05,69.30000000000001,0)" xlink:href="#U"/></g><g id="M"><use transform="matrix(0.05,0,0,0.05,0,0)" xlink:href="#T"/><use transform="matrix(0.05,0,0,0.05,10.8,0)" xlink:href="#W"/><use transform="matrix(0.05,0,0,0.05,20.8,0)" xlink:href="#Z"/><use transform="matrix(0.05,0,0,0.05,31.75,0)" xlink:href="#ab"/><use transform="matrix(0.05,0,0,0.05,42.6,0)" xlink:href="#P"/></g><g id="N"><use transform="matrix(0.05,0,0,0.05,0,0)" xlink:href="#ab"/><use transform="matrix(0.05,0,0,0.05,10.850000000000001,0)" xlink:href="#W"/></g></defs></g></svg>